<?xml version="1.0" encoding="UTF-8" standalone="no"?>
<!-- Created with Inkscape (http://www.inkscape.org/) -->

<svg
   width="39.206036mm"
   height="39.204391mm"
   viewBox="0 0 39.206036 39.204391"
   version="1.1"
   id="svg1"
   sodipodi:docname="Power Up.svg"
   inkscape:version="1.4 (86a8ad7, 2024-10-11)"
   xml:space="preserve"
   xmlns:inkscape="http://www.inkscape.org/namespaces/inkscape"
   xmlns:sodipodi="http://sodipodi.sourceforge.net/DTD/sodipodi-0.dtd"
   xmlns="http://www.w3.org/2000/svg"
   xmlns:svg="http://www.w3.org/2000/svg"><sodipodi:namedview
     id="namedview1"
     pagecolor="#ffffff"
     bordercolor="#000000"
     borderopacity="0.25"
     inkscape:showpageshadow="2"
     inkscape:pageopacity="0.0"
     inkscape:pagecheckerboard="0"
     inkscape:deskcolor="#d1d1d1"
     inkscape:document-units="mm"
     showgrid="false"
     inkscape:zoom="0.8208383"
     inkscape:cx="280.81048"
     inkscape:cy="1034.9176"
     inkscape:window-width="1920"
     inkscape:window-height="1057"
     inkscape:window-x="-8"
     inkscape:window-y="-8"
     inkscape:window-maximized="1"
     inkscape:current-layer="g11"
     showguides="true"><inkscape:grid
       id="grid1"
       units="mm"
       originx="-136.38608"
       originy="-213.66164"
       spacingx="0.99999998"
       spacingy="1"
       empcolor="#0099e5"
       empopacity="0.30196078"
       color="#0099e5"
       opacity="0.14901961"
       empspacing="5"
       enabled="true"
       visible="false" /></sodipodi:namedview><defs
     id="defs1"><inkscape:path-effect
       effect="bspline"
       id="path-effect31"
       is_visible="true"
       lpeversion="1.3"
       weight="33.333333"
       steps="2"
       helper_size="0"
       apply_no_weight="true"
       apply_with_weight="true"
       only_selected="false"
       uniform="false" /><filter
       inkscape:collect="always"
       style="color-interpolation-filters:sRGB"
       id="filter8"
       x="-0.2234529"
       y="-0.22346614"
       width="1.4469061"
       height="1.4469326"><feGaussianBlur
         inkscape:collect="always"
         stdDeviation="1.3659932"
         id="feGaussianBlur8" /></filter><filter
       inkscape:collect="always"
       style="color-interpolation-filters:sRGB"
       id="filter30"
       x="-2.320887"
       y="-2.3210267"
       width="5.6417743"
       height="5.6420537"><feGaussianBlur
         inkscape:collect="always"
         stdDeviation="14.464403"
         id="feGaussianBlur30" /></filter><filter
       inkscape:collect="always"
       style="color-interpolation-filters:sRGB"
       id="filter31"
       x="-0.17987814"
       y="-0.17988871"
       width="1.3597566"
       height="1.3597777"><feGaussianBlur
         inkscape:collect="always"
         stdDeviation="1.0938705"
         id="feGaussianBlur31" /></filter><filter
       inkscape:collect="always"
       style="color-interpolation-filters:sRGB"
       id="filter64"
       x="-2.320887"
       y="-2.3210267"
       width="5.6417743"
       height="5.6420537"><feGaussianBlur
         inkscape:collect="always"
         stdDeviation="14.464403"
         id="feGaussianBlur64" /></filter><filter
       inkscape:collect="always"
       style="color-interpolation-filters:sRGB"
       id="filter65"
       x="-2.320887"
       y="-2.3210267"
       width="5.6417743"
       height="5.6420537"><feGaussianBlur
         inkscape:collect="always"
         stdDeviation="14.464403"
         id="feGaussianBlur65" /></filter><filter
       inkscape:collect="always"
       style="color-interpolation-filters:sRGB"
       id="filter66"
       x="-2.320887"
       y="-2.3210267"
       width="5.6417743"
       height="5.6420537"><feGaussianBlur
         inkscape:collect="always"
         stdDeviation="14.464403"
         id="feGaussianBlur66" /></filter><filter
       inkscape:collect="always"
       style="color-interpolation-filters:sRGB"
       id="filter67"
       x="-2.320887"
       y="-2.3210267"
       width="5.6417743"
       height="5.6420537"><feGaussianBlur
         inkscape:collect="always"
         stdDeviation="14.464403"
         id="feGaussianBlur67" /></filter><filter
       inkscape:collect="always"
       style="color-interpolation-filters:sRGB"
       id="filter17"
       x="-0.23015689"
       y="-0.23017058"
       width="1.4603141"
       height="1.4603414"><feGaussianBlur
         inkscape:collect="always"
         stdDeviation="1.4078603"
         id="feGaussianBlur17" /></filter></defs><g
     inkscape:label="Capa 1"
     inkscape:groupmode="layer"
     id="layer1"
     transform="translate(-136.38608,-213.66163)"><g
       id="g11"><path
         style="display:inline;fill:#ffff66;fill-opacity:1;stroke:#fbff8e;stroke-width:0.1;stroke-dasharray:none;stroke-opacity:1;filter:url(#filter67)"
         d="m 47.499561,110.00781 -7.49236,7.49236 7.494664,7.49466 7.49326,-7.49325 z"
         id="path49"
         transform="matrix(1.3979909,0,0,1.3979909,41.623599,-103.85791)" /><path
         style="display:inline;fill:#ffff66;fill-opacity:1;stroke:#fbff8e;stroke-width:0.1;stroke-dasharray:none;stroke-opacity:1;filter:url(#filter66)"
         d="m 47.499561,110.00781 -7.49236,7.49236 7.494664,7.49466 7.49326,-7.49325 z"
         id="path50"
         transform="matrix(1.3979909,0,0,1.3979909,41.066868,-67.670309)" /><path
         style="display:inline;fill:#ffff66;fill-opacity:1;stroke:#fbff8e;stroke-width:0.1;stroke-dasharray:none;stroke-opacity:1;filter:url(#filter65)"
         d="m 47.499561,110.00781 -7.49236,7.49236 7.494664,7.49466 7.49326,-7.49325 z"
         id="path64"
         transform="matrix(1.3979909,0,0,1.3979909,-5.7332139,-4.7380373)" /><path
         style="display:inline;fill:#ffff66;fill-opacity:1;stroke:#fbff8e;stroke-width:0.1;stroke-dasharray:none;stroke-opacity:1;filter:url(#filter64)"
         d="m 47.499561,110.00781 -7.49236,7.49236 7.494664,7.49466 7.49326,-7.49325 z"
         id="path48"
         transform="matrix(1.3979909,0,0,1.3979909,109.76763,-103.85791)" /><path
         style="display:inline;fill:#d1ce00;fill-opacity:0.976471;stroke:#fbff8e;stroke-width:0.1;stroke-dasharray:none;stroke-opacity:1;filter:url(#filter30)"
         d="m 47.499561,110.00781 -7.49236,7.49236 7.494664,7.49466 7.49326,-7.49325 z"
         id="path30"
         transform="matrix(1.3979909,0,0,1.3979909,113.31945,-53.351999)" /><path
         style="display:inline;fill:#ffff66;fill-opacity:1;stroke:#fbff8e;stroke-width:0.1;stroke-dasharray:none;stroke-opacity:1;filter:url(#filter8)"
         d="m 47.499561,110.00781 -7.49236,7.49236 7.494664,7.49466 7.49326,-7.49325 z"
         id="path9"
         transform="matrix(1.3979909,0,0,1.3979909,-5.7595309,-4.8845563)" /><path
         style="fill:#ffff66;fill-opacity:1;stroke:#fbff8e;stroke-width:0.1;stroke-dasharray:none;stroke-opacity:1;filter:url(#filter8)"
         d="m 60.715217,151.9111 -7.49236,7.49236 7.494664,7.49466 7.49326,-7.49325 z"
         id="path8" /><path
         style="fill:#f1f174;fill-opacity:1;stroke:#8b8b0e;stroke-width:0.1;stroke-dasharray:none;stroke-opacity:1"
         d="m 60.715217,151.9111 -7.49236,7.49236 7.494664,7.49466 7.49326,-7.49325 z"
         id="path1" /><path
         style="fill:#000000;fill-opacity:1;stroke:none;stroke-width:0.136217;stroke-dasharray:none;stroke-opacity:1"
         d="m 60.696758,154.25003 3.41846,3.41846 h -6.804269 z"
         id="path4" /><path
         style="fill:#000000;fill-opacity:1;stroke:none;stroke-width:0.114878;stroke-dasharray:none;stroke-opacity:1"
         d="m 59.306952,156.79857 -0.0065,4.86471 h 2.791174 v -4.86277 z"
         id="path5"
         sodipodi:nodetypes="ccccc" /><rect
         style="fill:#000000;fill-opacity:1;stroke:none;stroke-width:0.31948;stroke-dasharray:none;stroke-opacity:1"
         id="rect5"
         width="2.7891667"
         height="0.46525919"
         x="59.303711"
         y="162.06912" /><rect
         style="fill:#000000;fill-opacity:1;stroke:none;stroke-width:0.271323;stroke-dasharray:none;stroke-opacity:1"
         id="rect9"
         width="2.7891667"
         height="0.33556834"
         x="59.303711"
         y="162.92078" /><rect
         style="fill:#000000;fill-opacity:1;stroke:none;stroke-width:0.225511;stroke-dasharray:none;stroke-opacity:1"
         id="rect10"
         width="2.7891667"
         height="0.23181567"
         x="59.303711"
         y="163.64272" /><rect
         style="fill:#000000;fill-opacity:1;stroke:none;stroke-width:0.152841;stroke-dasharray:none;stroke-opacity:1"
         id="rect11"
         width="2.7891667"
         height="0.10648512"
         x="59.303711"
         y="164.17154" /><path
         style="display:inline;fill:#ffff66;fill-opacity:1;stroke:#fbff8e;stroke-width:0.1;stroke-dasharray:none;stroke-opacity:1;filter:url(#filter8)"
         d="m 47.499561,110.00781 -7.49236,7.49236 7.494664,7.49466 7.49326,-7.49325 z"
         id="path11"
         transform="matrix(1.3979909,0,0,1.3979909,41.454453,-104.14851)" /><path
         style="fill:#ffff66;fill-opacity:1;stroke:#fbff8e;stroke-width:0.1;stroke-dasharray:none;stroke-opacity:1;filter:url(#filter8)"
         d="m 107.9292,52.64716 -7.49236,7.492357 7.49466,7.49466 7.49326,-7.49325 z"
         id="path12" /><path
         style="fill:#f1f174;fill-opacity:1;stroke:#8b8b0e;stroke-width:0.1;stroke-dasharray:none;stroke-opacity:1"
         d="m 107.9292,52.64716 -7.49236,7.492357 7.49466,7.49466 7.49326,-7.49325 z"
         id="path13" /><g
         id="g24"
         transform="matrix(1.6002782,0,0,1.6002782,-80.023804,-155.2122)"
         style="fill:#000000;fill-opacity:1"><path
           style="fill:#000000;fill-opacity:1;stroke:none;stroke-width:0.1;stroke-dasharray:none;stroke-opacity:1"
           d="m 116.00015,137.00145 h 0.90021 2.09826 v -0.74097 l -0.72751,-1.2601 h -1.54825 l -0.72252,1.25144 z"
           id="path18" /><path
           style="fill:#000000;fill-opacity:1;stroke:none;stroke-width:0.1;stroke-dasharray:none;stroke-opacity:1"
           d="m 116.89209,136.95495 0.0635,0.23703 h 1.09611 l 0.0643,-0.24014 z"
           id="path19" /><path
           style="fill:#000000;fill-opacity:1;stroke:none;stroke-width:0.1;stroke-dasharray:none;stroke-opacity:1"
           d="m 116.99854,137.14718 v 0.21291 h 0.99942 v -0.23874 h -0.99735 z"
           id="path20" /><path
           style="fill:#000000;fill-opacity:1;stroke:none;stroke-width:0.10128;stroke-dasharray:none;stroke-opacity:1"
           d="m 116.71377,134.99675 c 0,0 -0.0331,-1.00289 0.13915,-1.64582 0.0576,-0.21487 0.11081,-0.5389 0.20545,-0.87511 0.18853,-0.66975 0.43153,-1.38786 0.43153,-1.38786 0,0 0.25378,0.70907 0.44722,1.37424 0.0999,0.34326 0.15318,0.67483 0.21116,0.89123 0.17035,0.63575 0.11843,1.78013 0.11843,1.78013 h -1.55222 z"
           id="path21"
           sodipodi:nodetypes="csscssccc" /></g><path
         style="display:inline;fill:#ffff66;fill-opacity:1;stroke:#fbff8e;stroke-width:0.1;stroke-dasharray:none;stroke-opacity:1;filter:url(#filter8)"
         d="m 47.499561,110.00781 -7.49236,7.49236 7.494664,7.49466 7.49326,-7.49325 z"
         id="path24"
         transform="matrix(1.3979909,0,0,1.3979909,40.975727,-68.154521)" /><path
         style="fill:#ffff66;fill-opacity:1;stroke:#fbff8e;stroke-width:0.1;stroke-dasharray:none;stroke-opacity:1;filter:url(#filter8)"
         d="m 107.45048,88.641147 -7.492361,7.49235 7.494661,7.494663 7.49326,-7.493253 z"
         id="path25" /><path
         style="fill:#f1f174;fill-opacity:1;stroke:#8b8b0e;stroke-width:0.1;stroke-dasharray:none;stroke-opacity:1"
         d="m 107.45048,88.641147 -7.492361,7.49235 7.494661,7.494663 7.49326,-7.493253 z"
         id="path26" /><g
         id="g44"
         transform="matrix(0.75162949,0,0,0.75162949,8.2207446,-57.576776)"
         style="fill:#000000;fill-opacity:1"><path
           style="fill:#000000;fill-opacity:1;stroke:none;stroke-width:0.1;stroke-dasharray:none;stroke-opacity:1"
           d="m 125.53449,206.22427 c -0.001,-0.11661 -0.003,-0.34985 10e-4,-0.53227 0.004,-0.18241 0.014,-0.31401 0.0337,-0.48403 0.0196,-0.17002 0.0489,-0.37844 0.0906,-0.5836 0.0417,-0.20516 0.0958,-0.40704 0.1497,-0.58187 0.0539,-0.17484 0.10766,-0.32264 0.17105,-0.48059 0.0634,-0.15796 0.13642,-0.32608 0.20636,-0.46974 0.0699,-0.14365 0.13677,-0.26286 0.19533,-0.36586 0.0586,-0.10301 0.10887,-0.18984 0.18156,-0.3006 0.0727,-0.11077 0.16778,-0.24546 0.27923,-0.38878 0.11145,-0.14332 0.23926,-0.29524 0.37224,-0.44045 0.13298,-0.14522 0.27113,-0.28371 0.40515,-0.40739 0.13401,-0.12368 0.26389,-0.23254 0.39136,-0.33073 0.12747,-0.0982 0.25252,-0.18568 0.34829,-0.2508 0.0958,-0.0651 0.16225,-0.10782 0.24597,-0.15795 0.0837,-0.0501 0.18467,-0.10767 0.33643,-0.18398 0.15177,-0.0763 0.35433,-0.17139 0.53606,-0.24683 0.18173,-0.0754 0.34261,-0.13126 0.5085,-0.18294 0.16589,-0.0517 0.33675,-0.0992 0.51848,-0.14366 0.18172,-0.0444 0.37431,-0.0858 0.5452,-0.11023 0.17089,-0.0245 0.32003,-0.032 0.52623,-0.0353 0.20619,-0.003 0.46939,-0.002 0.71502,0.009 0.24564,0.0115 0.4737,0.0335 0.67576,0.0659 0.20206,0.0324 0.37809,0.0751 0.59979,0.13935 0.2217,0.0643 0.48903,0.15004 0.81718,0.2999 0.32815,0.14986 0.71709,0.3638 1.04386,0.57757 0.32677,0.21377 0.59135,0.42736 0.82407,0.64682 0.23272,0.21945 0.43356,0.44475 0.6258,0.69418 0.19224,0.24943 0.37585,0.52296 0.52865,0.78204 0.15279,0.25907 0.27474,0.50367 0.38119,0.76704 0.10646,0.26337 0.19741,0.54554 0.26563,0.80806 0.0682,0.26252 0.11368,0.50538 0.14692,0.75878 0.0332,0.25339 0.0542,0.51728 0.0603,0.74552 0.006,0.22824 -0.003,0.42081 -0.0233,0.62459 -0.0203,0.20378 -0.052,0.41875 -0.0994,0.65354 -0.0474,0.23479 -0.11042,0.48937 -0.17313,0.70384 -0.0627,0.21446 -0.12505,0.38877 -0.0629,0.24579 0.0622,-0.14298 0.24891,-0.60323 0.37672,-0.98599 0.12781,-0.38275 0.19672,-0.68798 0.24115,-0.95394 0.0444,-0.26596 0.0644,-0.49266 0.073,-0.76516 0.009,-0.27251 0.006,-0.59083 -0.015,-0.88573 -0.021,-0.2949 -0.0603,-0.56638 -0.12398,-0.84508 -0.0637,-0.27871 -0.15193,-0.56465 -0.25046,-0.83027 -0.0985,-0.26562 -0.20739,-0.5109 -0.29387,-0.69074 -0.0865,-0.17985 -0.15055,-0.29421 -0.24667,-0.45407 -0.0961,-0.15985 -0.22427,-0.36517 -0.38826,-0.58221 -0.16399,-0.21705 -0.3638,-0.4458 -0.5333,-0.62288 -0.1695,-0.17708 -0.30868,-0.30248 -0.49472,-0.45338 -0.18604,-0.15089 -0.41892,-0.32727 -0.64285,-0.47472 -0.22393,-0.14745 -0.43891,-0.26597 -0.64492,-0.36863 -0.20601,-0.10266 -0.40308,-0.18948 -0.61736,-0.26941 -0.21428,-0.0799 -0.4458,-0.15296 -0.66559,-0.21084 -0.2198,-0.0579 -0.42788,-0.10059 -0.60772,-0.13435 -0.17984,-0.0338 -0.33142,-0.0586 -0.49195,-0.0751 -0.16054,-0.0165 -0.33005,-0.0248 -0.49886,-0.0255 -0.16881,-6.8e-4 -0.33693,0.006 -0.49678,0.0186 -0.15986,0.0124 -0.31143,0.0303 -0.47474,0.0559 -0.16331,0.0255 -0.33829,0.0586 -0.52778,0.10197 -0.18948,0.0434 -0.39343,0.0971 -0.55191,0.14331 -0.15848,0.0462 -0.27148,0.0848 -0.38929,0.12815 -0.11782,0.0434 -0.24048,0.0917 -0.35968,0.14677 -0.11919,0.0551 -0.23495,0.11713 -0.36172,0.1881 -0.12678,0.071 -0.26459,0.15089 -0.41273,0.24253 -0.14814,0.0916 -0.30661,0.195 -0.44167,0.29216 -0.13506,0.0972 -0.24666,0.18809 -0.35691,0.28386 -0.11024,0.0958 -0.2191,0.19637 -0.33348,0.31144 -0.11438,0.11507 -0.23426,0.2446 -0.3452,0.37345 -0.11093,0.12885 -0.2129,0.257 -0.30454,0.37965 -0.0917,0.12265 -0.17295,0.23978 -0.2515,0.36381 -0.0785,0.12402 -0.15434,0.25493 -0.22807,0.38861 -0.0737,0.13368 -0.14537,0.27008 -0.21496,0.41753 -0.0696,0.14745 -0.13712,0.30593 -0.19568,0.46027 -0.0586,0.15434 -0.10818,0.30453 -0.1489,0.44124 -0.0407,0.1367 -0.0726,0.25986 -0.10261,0.39258 -0.0301,0.13272 -0.0583,0.27496 -0.0827,0.43624 -0.0244,0.16127 -0.0448,0.34153 -0.0594,0.53252 -0.0146,0.191 -0.0234,0.39269 -0.0249,0.57735 -0.001,0.18466 0.004,0.35224 0.0261,0.5534 0.0218,0.20117 0.0594,0.43586 0.0783,0.55322 0.0188,0.11736 0.0185,0.11738 0.0175,7.6e-4 z"
           id="path31"
           inkscape:path-effect="#path-effect31"
           inkscape:original-d="m 125.53549,206.34089 c -0.002,-0.23323 -0.004,-0.46647 -0.006,-0.6997 0.01,-0.1316 0.02,-0.2632 0.03,-0.39481 0.0293,-0.20843 0.0586,-0.41685 0.0879,-0.62528 0.0541,-0.20189 0.10817,-0.40377 0.16226,-0.60565 0.0537,-0.1478 0.10749,-0.29559 0.16123,-0.44338 0.073,-0.16813 0.14607,-0.33624 0.21911,-0.50436 0.0668,-0.11921 0.13367,-0.2384 0.2005,-0.3576 0.0503,-0.0868 0.1006,-0.17364 0.1509,-0.26046 0.0951,-0.1347 0.19017,-0.2694 0.28525,-0.4041 0.12782,-0.15194 0.25563,-0.30386 0.38344,-0.45579 0.13815,-0.1385 0.2763,-0.27699 0.41445,-0.41548 0.12988,-0.10887 0.25976,-0.21773 0.38964,-0.3266 0.12506,-0.0875 0.25011,-0.175 0.37517,-0.26251 0.0665,-0.0427 0.13298,-0.0854 0.19947,-0.12816 0.10094,-0.0575 0.20188,-0.11506 0.30282,-0.1726 0.20258,-0.0951 0.40515,-0.19017 0.60772,-0.28525 0.16089,-0.0558 0.32177,-0.11162 0.48266,-0.16743 0.17088,-0.0476 0.34175,-0.0951 0.51263,-0.14263 0.19258,-0.0413 0.38516,-0.0827 0.57774,-0.12402 0.14918,-0.008 0.29834,-0.0152 0.44752,-0.0227 0.26321,0.001 0.52641,0.002 0.78961,0.003 0.22807,0.022 0.45613,0.0441 0.6842,0.0661 0.17605,0.0427 0.35209,0.0854 0.52813,0.12816 0.26735,0.0858 0.53468,0.17156 0.80202,0.25735 0.38896,0.21394 0.7779,0.42788 1.16685,0.64182 0.26459,0.2136 0.52917,0.42719 0.79375,0.64079 0.20086,0.22531 0.4017,0.45061 0.60255,0.67592 0.18363,0.27355 0.36725,0.54708 0.55087,0.82063 0.12196,0.2446 0.24391,0.4892 0.36587,0.7338 0.0909,0.28216 0.1819,0.56431 0.27285,0.84646 0.0455,0.24289 0.0909,0.48576 0.13643,0.72864 0.021,0.2639 0.042,0.52779 0.063,0.79168 -0.009,0.19259 -0.0179,0.38516 -0.0269,0.57774 -0.0317,0.21498 -0.0634,0.42995 -0.0951,0.64493 -0.0631,0.25459 -0.12609,0.50918 -0.18914,0.76377 -0.0624,0.17433 -0.12471,0.34865 -0.18707,0.52297 0.18673,-0.46028 0.37345,-0.92053 0.56017,-1.3808 0.0689,-0.30524 0.13781,-0.61047 0.20671,-0.9157 0.02,-0.22669 0.04,-0.45338 0.0599,-0.68006 -0.003,-0.31834 -0.005,-0.63666 -0.008,-0.95498 -0.0393,-0.27148 -0.0786,-0.54295 -0.11782,-0.81442 -0.0882,-0.28595 -0.17639,-0.57189 -0.26459,-0.85783 -0.10886,-0.2453 -0.21772,-0.49058 -0.32659,-0.73588 -0.0641,-0.11438 -0.12816,-0.22875 -0.19224,-0.34313 -0.12816,-0.20533 -0.25631,-0.41065 -0.38447,-0.61598 -0.19982,-0.22876 -0.39963,-0.45751 -0.59945,-0.68626 -0.13918,-0.12541 -0.27836,-0.25081 -0.41754,-0.37621 -0.2329,-0.17639 -0.46578,-0.35277 -0.69867,-0.52916 -0.21497,-0.11852 -0.42995,-0.23703 -0.64492,-0.35554 -0.19706,-0.0868 -0.39412,-0.17363 -0.59118,-0.26045 -0.23151,-0.073 -0.46302,-0.14607 -0.69453,-0.21911 -0.20808,-0.0427 -0.41617,-0.0854 -0.62425,-0.12815 -0.15159,-0.0248 -0.30317,-0.0496 -0.45475,-0.0744 -0.1695,-0.008 -0.339,-0.0165 -0.5085,-0.0248 -0.16812,0.007 -0.33624,0.0138 -0.50436,0.0207 -0.15159,0.0179 -0.30317,0.0358 -0.45475,0.0538 -0.17502,0.0331 -0.35002,0.0661 -0.52504,0.0992 -0.20395,0.0537 -0.40789,0.10748 -0.61185,0.16123 -0.113,0.0386 -0.22599,0.0772 -0.33899,0.11575 -0.12265,0.0482 -0.24529,0.0965 -0.36794,0.1447 -0.11576,0.062 -0.23151,0.12402 -0.34726,0.18603 -0.13781,0.0799 -0.27561,0.15985 -0.41341,0.23978 -0.15848,0.10335 -0.31695,0.20671 -0.47543,0.31006 -0.11162,0.091 -0.22324,0.1819 -0.33486,0.27285 -0.10887,0.1006 -0.21773,0.20119 -0.3266,0.30179 -0.11989,0.12954 -0.23978,0.25907 -0.35966,0.38861 -0.10198,0.12816 -0.20395,0.25631 -0.30593,0.38447 -0.0813,0.11714 -0.16261,0.23427 -0.24391,0.3514 -0.0758,0.13092 -0.15158,0.26183 -0.22738,0.39274 -0.0717,0.13643 -0.14331,0.27285 -0.21497,0.40928 -0.0675,0.15848 -0.13505,0.31695 -0.20257,0.47542 -0.0496,0.15021 -0.0992,0.30041 -0.14883,0.45062 -0.0319,0.12317 -0.0637,0.24634 -0.0955,0.36951 -0.0283,0.14227 -0.0565,0.28453 -0.0848,0.4268 -0.0205,0.18027 -0.0409,0.36053 -0.0614,0.5408 -0.009,0.20171 -0.0175,0.40341 -0.0263,0.60511 0.006,0.16761 0.0117,0.3352 0.0175,0.5028 0.0377,0.23472 0.0753,0.46943 0.113,0.70414 z" /><path
           style="fill:#000000;fill-opacity:1;stroke:none;stroke-width:0.0875851;stroke-dasharray:none;stroke-opacity:1"
           id="path32"
           sodipodi:type="arc"
           sodipodi:cx="131.98656"
           sodipodi:cy="204.79369"
           sodipodi:rx="0.99963504"
           sodipodi:ry="0.99010116"
           sodipodi:start="0"
           sodipodi:end="6.2797038"
           sodipodi:open="true"
           sodipodi:arc-type="arc"
           d="m 132.98619,204.79369 a 0.99963504,0.99010116 0 0 1 -0.99876,0.9901 0.99963504,0.99010116 0 0 1 -1.00051,-0.98838 0.99963504,0.99010116 0 0 1 0.99703,-0.99182 0.99963504,0.99010116 0 0 1 1.00224,0.98665" /><path
           style="fill:#000000;fill-opacity:1;stroke:none;stroke-width:0.104019;stroke-dasharray:none;stroke-opacity:1"
           d="m 125.93183,203.25818 -0.2699,0.73645 1.43449,0.10797 z"
           id="path33"
           sodipodi:nodetypes="cccc" /><path
           style="fill:#000000;fill-opacity:1;stroke:none;stroke-width:0.203084;stroke-dasharray:none;stroke-opacity:1"
           d="m 125.50768,204.67204 0.0164,1.53128 2.6948,-0.79135 z"
           id="path34"
           sodipodi:nodetypes="cccc" /><path
           style="fill:#000000;fill-opacity:1;stroke:none;stroke-width:0.222647;stroke-dasharray:none;stroke-opacity:1"
           d="m 127.26738,201.3287 -0.92234,1.40281 2.936,0.92785 z"
           id="path35"
           sodipodi:nodetypes="cccc" /><path
           style="fill:#000000;fill-opacity:1;stroke:none;stroke-width:0.109879;stroke-dasharray:none;stroke-opacity:1"
           d="m 128.82497,199.89808 -0.69571,0.44995 1.14126,1.00332 z"
           id="path36"
           sodipodi:nodetypes="cccc" /><path
           style="fill:#000000;fill-opacity:1;stroke:none;stroke-width:0.200377;stroke-dasharray:none;stroke-opacity:1"
           d="m 131.54556,199.30651 -1.42445,0.32894 1.26687,2.53597 z"
           id="path37"
           sodipodi:nodetypes="cccc" /><path
           style="fill:#000000;fill-opacity:1;stroke:none;stroke-width:0.109504;stroke-dasharray:none;stroke-opacity:1"
           d="m 133.47859,199.45475 -0.81549,-0.12954 0.17832,1.50389 z"
           id="path38"
           sodipodi:nodetypes="cccc" /><path
           style="fill:#000000;fill-opacity:1;stroke:none;stroke-width:0.186386;stroke-dasharray:none;stroke-opacity:1"
           d="m 135.65457,200.57107 -1.22399,-0.69073 -0.60828,2.50487 z"
           id="path39"
           sodipodi:nodetypes="cccc" /><path
           style="fill:#000000;fill-opacity:1;stroke:none;stroke-width:0.240369;stroke-dasharray:none;stroke-opacity:1"
           d="m 138.2874,204.50947 -0.55963,-1.72391 -2.76329,1.84793 z"
           id="path40"
           sodipodi:nodetypes="cccc" /><path
           style="fill:#000000;fill-opacity:1;stroke:none;stroke-width:0.104453;stroke-dasharray:none;stroke-opacity:1"
           d="m 137.28134,201.86238 -0.53132,-0.58141 -0.761,1.22785 z"
           id="path41"
           sodipodi:nodetypes="cccc"
           inkscape:transform-center-x="-0.88485121"
           inkscape:transform-center-y="-1.1131778" /><path
           style="fill:#000000;fill-opacity:1;stroke:none;stroke-width:0.0948402;stroke-dasharray:none;stroke-opacity:1"
           d="m 138.33551,205.97982 -0.0761,-0.71108 -1.21699,0.48916 z"
           id="path42"
           sodipodi:nodetypes="cccc" /><path
           style="fill:#000000;fill-opacity:1;stroke:none;stroke-width:0.182271;stroke-dasharray:none;stroke-opacity:1"
           d="m 137.89684,208.12189 0.4176,-1.30942 -2.51939,-0.0836 z"
           id="path43"
           sodipodi:nodetypes="cccc" /><path
           style="fill:#000000;fill-opacity:1;stroke:none;stroke-width:0.1;stroke-dasharray:none;stroke-opacity:1"
           d="m 131.03489,204.72548 -0.43821,-0.22737 -0.12816,-0.1571 -0.0662,-0.13642 -0.004,-0.1323 0.0496,-0.14056 0.10748,-0.11575 0.12816,-0.0496 0.16123,-0.0165 0.16536,0.0331 6.86817,4.30024 z"
           id="path44"
           sodipodi:nodetypes="cccccccccccc" /></g><path
         style="display:inline;fill:#ffff66;fill-opacity:1;stroke:#fbff8e;stroke-width:0.1;stroke-dasharray:none;stroke-opacity:1;filter:url(#filter8)"
         d="m 47.499561,110.00781 -7.49236,7.49236 7.494664,7.49466 7.49326,-7.49325 z"
         id="path45"
         transform="matrix(1.3979909,0,0,1.3979909,109.71695,-104.14851)" /><path
         style="fill:#ffff66;fill-opacity:1;stroke:#fbff8e;stroke-width:0.1;stroke-dasharray:none;stroke-opacity:1;filter:url(#filter8)"
         d="m 176.1917,52.64716 -7.49236,7.492357 7.49466,7.49466 7.49326,-7.49325 z"
         id="path46" /><path
         style="fill:#f1f174;fill-opacity:1;stroke:#8b8b0e;stroke-width:0.1;stroke-dasharray:none;stroke-opacity:1"
         d="m 176.1917,52.64716 -7.49236,7.492357 7.49466,7.49466 7.49326,-7.49325 z"
         id="path47" /><g
         id="g51"
         transform="matrix(2.09647,0,0,2.09647,-70.132423,-221.05035)"
         style="fill:#000000;fill-opacity:1"><path
           style="fill:#000000;fill-opacity:1;stroke:none;stroke-width:0.0228691;stroke-dasharray:none;stroke-opacity:1"
           d="m 116.92743,131.7443 h 1.07499 l -0.419,1.88549 h 1.10427 l -1.63372,3.08967 0.2798,-2.09508 h -0.74498 z"
           id="path51" /></g><path
         style="display:inline;fill:#ffff66;fill-opacity:1;stroke:#fbff8e;stroke-width:0.1;stroke-dasharray:none;stroke-opacity:1;filter:url(#filter31)"
         d="m 47.499561,110.00781 -7.49236,7.49236 7.494664,7.49466 7.49326,-7.49325 z"
         id="path52"
         transform="matrix(1.3979909,0,0,1.3979909,113.55341,-53.083923)" /><path
         style="fill:#ffff66;fill-opacity:1;stroke:#fbff8e;stroke-width:0.1;stroke-dasharray:none;stroke-opacity:1;filter:url(#filter8)"
         d="m 180.02816,103.71174 -7.49236,7.49236 7.49466,7.49466 7.49326,-7.49325 z"
         id="path53" /><path
         style="fill:#f1f174;fill-opacity:1;stroke:#8b8b0e;stroke-width:0.1;stroke-dasharray:none;stroke-opacity:1"
         d="m 180.02816,103.71174 -7.49236,7.49236 7.49466,7.49466 7.49326,-7.49325 z"
         id="path54" /><path
         style="fill:#000000;fill-opacity:1;stroke:none;stroke-width:0.118428;stroke-dasharray:none;stroke-opacity:1"
         id="path55"
         sodipodi:type="arc"
         sodipodi:cx="180.00558"
         sodipodi:cy="111.21575"
         sodipodi:rx="0.97918433"
         sodipodi:ry="0.97918433"
         sodipodi:start="0"
         sodipodi:end="6.2797038"
         sodipodi:open="true"
         sodipodi:arc-type="arc"
         d="m 180.98477,111.21575 a 0.97918433,0.97918433 0 0 1 -0.97833,0.97919 0.97918433,0.97918433 0 0 1 -0.98004,-0.97748 0.97918433,0.97918433 0 0 1 0.97663,-0.98089 0.97918433,0.97918433 0 0 1 0.98173,0.97577" /><path
         style="fill:#000000;fill-opacity:1;stroke:none;stroke-width:0.118428;stroke-dasharray:none;stroke-opacity:1"
         id="path56"
         sodipodi:type="arc"
         sodipodi:cx="179.98967"
         sodipodi:cy="107.17068"
         sodipodi:rx="0.97918433"
         sodipodi:ry="0.97918433"
         sodipodi:start="0"
         sodipodi:end="6.2797038"
         sodipodi:open="true"
         sodipodi:arc-type="arc"
         d="m 180.96885,107.17068 a 0.97918433,0.97918433 0 0 1 -0.97833,0.97918 0.97918433,0.97918433 0 0 1 -0.98003,-0.97748 0.97918433,0.97918433 0 0 1 0.97662,-0.98088 0.97918433,0.97918433 0 0 1 0.98174,0.97577" /><path
         style="fill:#000000;fill-opacity:1;stroke:none;stroke-width:0.118428;stroke-dasharray:none;stroke-opacity:1"
         id="path57"
         sodipodi:type="arc"
         sodipodi:cx="182.48131"
         sodipodi:cy="113.20856"
         sodipodi:rx="0.97918433"
         sodipodi:ry="0.97918433"
         sodipodi:start="0"
         sodipodi:end="6.2797038"
         sodipodi:open="true"
         sodipodi:arc-type="arc"
         d="m 183.46049,113.20856 a 0.97918433,0.97918433 0 0 1 -0.97833,0.97918 0.97918433,0.97918433 0 0 1 -0.98003,-0.97748 0.97918433,0.97918433 0 0 1 0.97662,-0.98088 0.97918433,0.97918433 0 0 1 0.98174,0.97577" /><path
         style="fill:#000000;fill-opacity:1;stroke:none;stroke-width:0.118428;stroke-dasharray:none;stroke-opacity:1"
         id="path58"
         sodipodi:type="arc"
         sodipodi:cx="179.99129"
         sodipodi:cy="115.18764"
         sodipodi:rx="0.97918433"
         sodipodi:ry="0.97918433"
         sodipodi:start="0"
         sodipodi:end="6.2797038"
         sodipodi:open="true"
         sodipodi:arc-type="arc"
         d="m 180.97047,115.18764 a 0.97918433,0.97918433 0 0 1 -0.97833,0.97918 0.97918433,0.97918433 0 0 1 -0.98004,-0.97748 0.97918433,0.97918433 0 0 1 0.97663,-0.98088 0.97918433,0.97918433 0 0 1 0.98174,0.97577" /><path
         style="fill:#000000;fill-opacity:1;stroke:none;stroke-width:0.118428;stroke-dasharray:none;stroke-opacity:1"
         id="path59"
         sodipodi:type="arc"
         sodipodi:cx="177.49147"
         sodipodi:cy="113.19912"
         sodipodi:rx="0.97918433"
         sodipodi:ry="0.97918433"
         sodipodi:start="0"
         sodipodi:end="6.2797038"
         sodipodi:open="true"
         sodipodi:arc-type="arc"
         d="m 178.47065,113.19912 a 0.97918433,0.97918433 0 0 1 -0.97833,0.97918 0.97918433,0.97918433 0 0 1 -0.98003,-0.97748 0.97918433,0.97918433 0 0 1 0.97662,-0.98088 0.97918433,0.97918433 0 0 1 0.98174,0.97577" /><path
         style="fill:#000000;fill-opacity:1;stroke:none;stroke-width:0.118428;stroke-dasharray:none;stroke-opacity:1"
         id="path60"
         sodipodi:type="arc"
         sodipodi:cx="177.48756"
         sodipodi:cy="109.17695"
         sodipodi:rx="0.97918433"
         sodipodi:ry="0.97918433"
         sodipodi:start="0"
         sodipodi:end="6.2797038"
         sodipodi:open="true"
         sodipodi:arc-type="arc"
         d="m 178.46675,109.17695 a 0.97918433,0.97918433 0 0 1 -0.97833,0.97918 0.97918433,0.97918433 0 0 1 -0.98004,-0.97748 0.97918433,0.97918433 0 0 1 0.97663,-0.98088 0.97918433,0.97918433 0 0 1 0.98173,0.97577" /><path
         style="fill:#000000;fill-opacity:1;stroke:none;stroke-width:0.118428;stroke-dasharray:none;stroke-opacity:1"
         id="path61"
         sodipodi:type="arc"
         sodipodi:cx="182.48364"
         sodipodi:cy="109.18906"
         sodipodi:rx="0.97918433"
         sodipodi:ry="0.97918433"
         sodipodi:start="0"
         sodipodi:end="6.2797038"
         sodipodi:open="true"
         sodipodi:arc-type="arc"
         d="m 183.46283,109.18906 a 0.97918433,0.97918433 0 0 1 -0.97834,0.97918 0.97918433,0.97918433 0 0 1 -0.98003,-0.97748 0.97918433,0.97918433 0 0 1 0.97663,-0.98088 0.97918433,0.97918433 0 0 1 0.98173,0.97577" /><path
         style="fill:#000000;fill-opacity:1;stroke:none;stroke-width:0.118428;stroke-dasharray:none;stroke-opacity:1"
         id="path62"
         sodipodi:type="arc"
         sodipodi:cx="175.51144"
         sodipodi:cy="111.21154"
         sodipodi:rx="0.97918433"
         sodipodi:ry="0.97918433"
         sodipodi:start="0"
         sodipodi:end="6.2797038"
         sodipodi:open="true"
         sodipodi:arc-type="arc"
         d="m 176.49063,111.21154 a 0.97918433,0.97918433 0 0 1 -0.97833,0.97918 0.97918433,0.97918433 0 0 1 -0.98004,-0.97748 0.97918433,0.97918433 0 0 1 0.97663,-0.98088 0.97918433,0.97918433 0 0 1 0.98173,0.97577" /><path
         style="fill:#000000;fill-opacity:1;stroke:none;stroke-width:0.118428;stroke-dasharray:none;stroke-opacity:1"
         id="path63"
         sodipodi:type="arc"
         sodipodi:cx="184.49571"
         sodipodi:cy="111.21575"
         sodipodi:rx="0.97918433"
         sodipodi:ry="0.97918433"
         sodipodi:start="0"
         sodipodi:end="6.2797038"
         sodipodi:open="true"
         sodipodi:arc-type="arc"
         d="m 185.4749,111.21575 a 0.97918433,0.97918433 0 0 1 -0.97834,0.97919 0.97918433,0.97918433 0 0 1 -0.98003,-0.97748 0.97918433,0.97918433 0 0 1 0.97663,-0.98089 0.97918433,0.97918433 0 0 1 0.98173,0.97577" /><path
         style="display:inline;fill:#7eff66;fill-opacity:1;stroke:#00d014;stroke-width:0.1;stroke-dasharray:none;stroke-opacity:1;filter:url(#filter8)"
         d="m 47.499561,110.00781 -7.49236,7.49236 7.494664,7.49466 7.49326,-7.49325 z"
         id="path3"
         transform="matrix(1.8078859,0,0,1.8078859,70.11242,20.834844)"
         inkscape:export-filename="Vida.png"
         inkscape:export-xdpi="96"
         inkscape:export-ydpi="96" /><path
         style="fill:#154600;fill-opacity:1;stroke:#d4ff8e;stroke-width:0.1;stroke-dasharray:none;stroke-opacity:1;filter:url(#filter17)"
         d="m 151.61314,230.23804 -7.49236,7.49236 7.49467,7.49466 7.49326,-7.49325 z"
         id="path6"
         transform="matrix(1.2932029,0,0,1.2932029,-39.988803,-74.141059)" /><path
         style="fill:#7eff66;fill-opacity:1;stroke:#2fff1a;stroke-width:0.12932;stroke-dasharray:none;stroke-opacity:1"
         d="m 156.07775,223.60345 -9.68914,9.68914 9.69213,9.69212 9.69031,-9.6903 z"
         id="path7" /><path
         style="fill:#000000;fill-opacity:1;stroke:none;stroke-width:0.388099;stroke-opacity:1"
         d="m 154.2585,231.31678 v -3.90928 h 3.88975 v 3.90928 h 3.87017 v 3.88975 h -3.86305 v 3.89099 h -3.89762 v -3.88383 h -3.87 v -3.91146 z"
         id="path17" /></g></g></svg>
